<svg width="126" height="43" viewBox="0 0 126 43" fill="none" xmlns="http://www.w3.org/2000/svg">
<g clip-path="url(#clip0_93_16)">
<path fill-rule="evenodd" clip-rule="evenodd" d="M42.0277 20.9861C42.0277 32.5895 32.5895 42.0277 20.9861 42.0277C9.38267 42.0277 0 32.5895 0 20.9861C0 9.38267 9.38267 0 20.9861 0C32.5895 0 42.0277 9.38267 42.0277 20.9861Z" fill="#65CDAA"/>
<path fill-rule="evenodd" clip-rule="evenodd" d="M33.2558 22.041C33.4224 21.8189 33.5334 21.8189 33.5334 20.9306C33.2003 20.5419 32.0344 20.5419 31.4237 20.7085C31.4237 20.8751 31.3682 21.0971 31.3682 21.3192C31.8678 21.8189 32.7006 22.041 33.2558 22.041Z" fill="#283643"/>
<path fill-rule="evenodd" clip-rule="evenodd" d="M35.3099 29.7581C34.4216 31.5347 33.2557 32.3119 31.3125 33.0892C28.2035 32.0899 25.7607 29.8691 25.0389 26.9821C25.15 26.538 25.5941 26.0383 26.5934 25.3721C27.4262 24.8724 29.9246 23.4289 30.3687 22.5406C30.0356 21.9854 29.4804 21.6523 28.9252 21.3747C26.9266 21.4858 23.8175 22.9848 22.8737 22.6517C22.5961 21.8744 22.8182 20.4864 23.2068 19.4871C23.4289 19.3205 25.4831 18.0436 25.8162 17.9881C25.7607 18.2657 25.372 18.6543 25.261 18.9874C25.261 19.0429 26.1493 18.0436 26.7045 17.877C26.8155 18.0436 26.9821 18.2102 27.3152 18.3767C27.7038 18.4878 28.4811 18.5433 28.9252 18.3212C29.2583 17.9326 29.3694 17.7105 29.647 16.9332C29.7025 16.9332 32.2008 18.8209 32.534 18.9874C32.7005 19.0985 34.033 20.0423 34.1995 20.3199C34.3106 20.5975 34.3661 21.1527 34.4771 22.041C34.5881 22.4851 35.9206 23.2068 36.0872 23.8731C35.3654 24.2617 34.9213 24.3727 34.0885 24.5393C33.3667 24.7614 32.9226 24.9279 32.0898 25.0945C31.5346 25.2055 30.4242 25.4831 29.9801 25.7052C29.5359 25.9273 28.7587 26.7045 28.259 26.8711C27.0376 26.7045 26.8155 25.9828 26.649 25.8162C26.4824 25.8717 26.3159 26.0383 26.2603 26.0938C26.5934 26.8711 27.5373 27.3152 28.259 27.3152C29.2028 27.1487 29.647 26.4825 30.2577 26.0938C31.0349 25.8162 31.8677 25.5942 32.756 25.4276C33.2002 25.3166 33.6998 25.0945 34.144 24.9834C35.4209 24.8169 35.643 24.5393 36.1427 24.3727C36.5868 25.8717 35.754 28.5922 35.3099 29.7581ZM18.4322 32.534C17.766 31.8678 16.378 29.7025 16.2114 28.7587C16.2114 26.0383 16.6556 24.9279 17.877 22.5406C17.2108 24.7059 16.5445 26.4269 16.7666 28.5922C17.2108 29.7581 17.766 30.924 18.8763 32.0899C20.0422 32.9782 21.6523 33.4223 23.873 34.3661C21.5968 33.922 19.9312 33.4778 18.4322 32.534ZM12.0475 12.7138C11.8254 12.3807 11.4368 11.8255 10.8816 11.3258C11.2703 10.9927 11.2147 10.382 11.881 9.93786C12.4362 10.2155 13.602 11.8255 13.9907 12.3252C14.4904 12.8248 14.99 13.4355 15.4897 13.9352C15.6007 14.1018 16.6001 14.9901 16.9887 15.4342C16.8221 15.6008 16.378 15.9894 15.8783 16.378C14.3238 15.8784 12.4362 13.269 12.0475 12.7138ZM20.8195 5.99603C22.0964 6.55121 24.5948 8.71645 25.0944 9.99338C24.0951 10.1044 23.6509 10.2155 22.8737 10.4375C21.4302 8.54989 19.7091 7.93918 17.8215 6.66225C18.2101 6.05154 20.0977 5.99603 20.8195 5.99603ZM27.7593 10.8262C27.9259 10.9927 28.3145 11.4369 28.37 11.77C28.2035 12.3252 24.2617 13.38 23.6509 13.2135C23.873 12.6028 24.3172 12.1031 25.7051 11.4369C26.0383 11.2703 26.9266 10.8262 27.7593 10.8262ZM30.9794 14.0462C31.3681 14.6014 31.3125 15.2677 31.2015 15.6563C30.5353 15.8228 30.5353 15.8228 29.8135 15.7673C28.9808 15.6563 26.9821 16.267 26.5934 16.3225C25.4276 16.7667 24.4282 17.0443 23.762 17.7105C23.873 16.5446 29.4804 13.7687 30.9794 14.0462ZM36.5868 23.7065C36.1982 22.9848 34.9213 22.0965 34.8657 21.8189C34.8102 21.4858 34.6992 20.5975 34.5326 20.0978C34.3106 19.6536 32.4784 18.5433 31.8677 18.0991C31.6457 17.9326 31.0349 17.4884 30.9239 17.3219C31.3681 17.0998 31.6457 17.0998 32.2564 16.4336C32.2008 15.3232 31.6457 13.9907 31.4791 13.7687C31.146 13.5466 31.0349 13.6021 30.7018 13.4911C30.3687 13.269 29.758 11.9921 29.4249 11.4924C28.9252 10.7706 28.5366 10.382 27.1486 10.1599C26.3714 10.1599 26.3714 10.0489 25.9827 9.60475C25.2055 8.883 24.5948 7.71711 23.7065 6.66225C23.2623 6.16258 22.263 5.49636 21.5968 5.21876C21.0416 4.99669 19.376 4.71909 18.5987 4.71909C17.877 4.71909 17.4328 4.71909 16.7111 4.83013C14.4904 5.16324 12.8803 5.82947 11.3258 7.49503C10.382 8.49437 9.93781 10.1599 9.16055 11.3258C8.88295 11.77 8.60536 12.1586 8.32777 12.6028C7.99465 13.0469 7.71706 13.38 7.38395 13.7687C6.9398 14.2683 6.49565 14.7125 6.10701 15.2121C5.66286 15.7673 5.21871 16.156 4.71904 16.6001C4.66353 16.6556 4.60801 16.7111 4.60801 16.7667C4.10834 17.2108 3.60867 17.5995 3.109 18.0436C2.38726 18.6543 2.2207 19.4316 1.72103 20.2088C1.44344 20.5975 1.16584 20.9861 0.888248 21.4302C0.777211 21.7078 0.610654 21.9299 0.444098 22.2075C0.277541 22.4851 0.166504 22.7627 0.166504 23.0403C0.166504 23.0958 0.166504 23.0958 0.166504 23.0958C0.166504 23.1513 0.166504 23.1513 0.166504 23.1513C0.166504 23.2068 0.166504 23.2624 0.166504 23.3179C1.16584 33.8665 10.0488 42.0832 20.875 42.0832C24.5948 42.0832 28.0925 41.1394 31.146 39.4183H31.0905C30.9794 39.3628 30.5908 39.3073 30.4798 39.3073C30.1466 39.1963 29.8691 39.1407 29.5915 39.0852C28.5921 38.8076 23.8175 37.0865 23.6509 36.5869C24.0396 36.5314 25.0389 35.9206 25.372 35.9206C26.9266 36.2538 29.1473 38.0304 31.4236 37.7528C32.8671 36.8645 33.0336 35.7541 34.0885 33.6444C34.5326 32.7006 35.532 31.4236 35.6985 30.7574C36.1427 29.9246 37.5306 27.4263 36.5868 23.7065Z" fill="#283643"/>
<path fill-rule="evenodd" clip-rule="evenodd" d="M70.5642 23.7171C70.5087 23.9947 70.3976 24.2168 70.2866 24.3833C70.12 24.6054 69.9535 24.7164 69.7314 24.8275C69.5649 24.9385 69.2873 24.994 69.0097 24.994C68.7321 24.994 68.4545 24.9385 68.2879 24.8275C68.0658 24.7164 67.8993 24.5499 67.7883 24.3278C67.6772 24.1613 67.5662 23.9392 67.5107 23.6616C67.4551 23.384 67.4551 23.0509 67.4551 22.7733C67.4551 22.3847 67.4551 22.1071 67.5107 21.8295C67.6217 21.5519 67.6772 21.3298 67.8438 21.1077C67.9548 20.9412 68.1214 20.7746 68.3434 20.6636C68.5655 20.6081 68.7876 20.5525 69.0652 20.5525C69.3428 20.5525 69.6204 20.6081 69.8425 20.7191C70.009 20.8301 70.1756 20.9967 70.3421 21.1632C70.4532 21.3853 70.5087 21.6074 70.5642 21.885C70.6197 22.1626 70.6752 22.4402 70.6752 22.7733C70.6752 23.1064 70.6197 23.4395 70.5642 23.7171ZM72.3408 21.1632C72.2298 20.7191 72.0077 20.3305 71.7301 19.9974C71.4525 19.7198 71.0639 19.4977 70.6752 19.3311C70.2311 19.1646 69.7314 19.0535 69.1207 19.0535C68.51 19.0535 68.0103 19.1646 67.5662 19.3311C67.122 19.5532 66.7334 19.7753 66.4558 20.1084C66.1227 20.4415 65.9006 20.8301 65.7341 21.3298C65.623 21.774 65.512 22.2736 65.512 22.8288C65.512 23.384 65.623 23.9392 65.7341 24.3833C65.9006 24.8275 66.0672 25.2161 66.4003 25.4937C66.6779 25.8268 67.011 26.0489 67.4551 26.2155C67.8993 26.382 68.399 26.4375 68.9542 26.4375C69.5649 26.4375 70.0645 26.382 70.5642 26.1599C71.0083 25.9934 71.3415 25.7713 71.6746 25.4382C71.9522 25.1051 72.1742 24.6609 72.3408 24.2168C72.5074 23.7726 72.5629 23.273 72.5629 22.7178C72.5629 22.1071 72.5074 21.6074 72.3408 21.1632ZM78.6144 23.5506C78.5589 23.8281 78.5034 24.0502 78.3923 24.2168C78.2813 24.4389 78.1147 24.6054 77.9482 24.7164C77.7816 24.8275 77.6151 24.883 77.3375 24.883C77.1154 24.883 76.8378 24.772 76.6157 24.6054C76.3937 24.4389 76.1161 24.2168 75.8385 23.8837V21.7184C76.005 21.4964 76.1716 21.3298 76.2826 21.2188C76.3937 21.0522 76.5602 20.9412 76.6713 20.8857C76.7823 20.7746 76.8933 20.7191 77.0044 20.7191C77.1709 20.6636 77.282 20.6636 77.393 20.6636C77.6151 20.6636 77.8372 20.7191 78.0037 20.8301C78.1703 20.9412 78.2813 21.1077 78.3923 21.3298C78.5034 21.4964 78.5589 21.7184 78.6144 21.996C78.6699 22.2736 78.6699 22.5512 78.6699 22.8288C78.6699 23.0509 78.6699 23.3285 78.6144 23.5506ZM80.4465 21.2743C80.3355 20.8857 80.2245 20.497 80.0024 20.1639C79.7803 19.8308 79.5027 19.5532 79.1696 19.3866C78.8365 19.1646 78.3923 19.0535 77.9482 19.0535C77.7261 19.0535 77.5596 19.1091 77.393 19.1091C77.2264 19.1646 77.0044 19.2201 76.8378 19.2756C76.6713 19.3866 76.5047 19.4422 76.3381 19.6087C76.1716 19.7198 76.005 19.8308 75.8385 19.9974V16.3886C75.8385 16.3331 75.8385 16.3331 75.8385 16.2776C75.783 16.2221 75.7274 16.2221 75.6719 16.1666C75.6164 16.1666 75.5054 16.111 75.3943 16.111C75.2833 16.111 75.1167 16.111 74.9502 16.111C74.7836 16.111 74.6171 16.111 74.506 16.111C74.395 16.111 74.284 16.1666 74.2284 16.1666C74.1174 16.2221 74.0619 16.2221 74.0619 16.2776C74.0064 16.3331 74.0064 16.3331 74.0064 16.3886V26.0489C74.0064 26.1044 74.0064 26.1599 74.0619 26.1599C74.0619 26.2155 74.1174 26.2155 74.1729 26.271C74.2284 26.271 74.3395 26.3265 74.395 26.3265C74.506 26.3265 74.6726 26.3265 74.7836 26.3265C74.9502 26.3265 75.0612 26.3265 75.1723 26.3265C75.2833 26.3265 75.3388 26.271 75.3943 26.271C75.5054 26.2155 75.5054 26.2155 75.5609 26.1599C75.5609 26.1599 75.6164 26.1044 75.6164 26.0489V25.3272C75.783 25.5492 75.9495 25.7158 76.1161 25.8268C76.2826 25.9934 76.4492 26.1044 76.6157 26.2155C76.7823 26.271 77.0044 26.3265 77.1709 26.382C77.3375 26.4375 77.5596 26.4375 77.7816 26.4375C78.2258 26.4375 78.6144 26.382 79.003 26.2155C79.3362 25.9934 79.6138 25.7713 79.8358 25.4382C80.1134 25.1051 80.28 24.7164 80.391 24.2723C80.5576 23.7726 80.6131 23.273 80.6131 22.6623C80.6131 22.2181 80.5576 21.7184 80.4465 21.2743ZM83.8332 16.5552C83.7221 16.3886 83.4446 16.3331 83.0004 16.3331C82.6118 16.3331 82.3342 16.3886 82.1676 16.5552C82.0011 16.6662 81.9455 16.9438 81.9455 17.3325C81.9455 17.6656 82.0011 17.9432 82.1676 18.0542C82.2787 18.2208 82.5563 18.2763 83.0004 18.2763C83.389 18.2763 83.6666 18.2208 83.8332 18.0542C83.9997 17.8876 84.0553 17.6656 84.0553 17.2769C84.0553 16.9438 83.9997 16.6662 83.8332 16.5552ZM83.9442 19.4977C83.9442 19.4422 83.8887 19.4422 83.8887 19.3866C83.8332 19.3311 83.7777 19.3311 83.7221 19.2756C83.6666 19.2756 83.5556 19.2201 83.4446 19.2201C83.3335 19.2201 83.167 19.2201 83.0004 19.2201C82.8338 19.2201 82.6673 19.2201 82.5563 19.2201C82.4452 19.2201 82.3342 19.2756 82.2787 19.2756C82.2231 19.3311 82.1676 19.3311 82.1121 19.3866C82.1121 19.4422 82.0566 19.4422 82.0566 19.4977V26.0489C82.0566 26.1044 82.1121 26.1044 82.1121 26.1599C82.1676 26.2155 82.2231 26.2155 82.2787 26.271C82.3342 26.271 82.4452 26.271 82.5563 26.3265C82.6673 26.3265 82.8338 26.3265 83.0004 26.3265C83.167 26.3265 83.3335 26.3265 83.4446 26.3265C83.5556 26.271 83.6666 26.271 83.7221 26.271C83.7777 26.2155 83.8332 26.2155 83.8887 26.1599C83.8887 26.1044 83.9442 26.1044 83.9442 26.0489V19.4977ZM89.7182 16.6662C89.7182 16.5552 89.6627 16.4997 89.6627 16.4442C89.6627 16.3331 89.6071 16.3331 89.5516 16.2776C89.5516 16.2221 89.4961 16.2221 89.3851 16.1666C89.274 16.111 89.163 16.111 88.9964 16.0555C88.7744 16.0555 88.6078 16 88.4412 16C88.0526 16 87.664 16.0555 87.3864 16.1666C87.1088 16.3331 86.8867 16.4997 86.6646 16.7217C86.4981 16.9438 86.3315 17.2214 86.276 17.5545C86.165 17.8876 86.1095 18.2763 86.1095 18.7204V19.2756H85.3322C85.2767 19.2756 85.2212 19.2756 85.1656 19.2756C85.1656 19.3311 85.1101 19.3311 85.1101 19.3866C85.0546 19.4422 85.0546 19.5532 85.0546 19.6642C85.0546 19.7198 85.0546 19.8308 85.0546 19.9974C85.0546 20.2749 85.0546 20.4415 85.1101 20.5525C85.1656 20.6636 85.2212 20.7191 85.3322 20.7191H86.1095V26.0489C86.1095 26.1044 86.165 26.1044 86.165 26.1599C86.2205 26.2155 86.2205 26.2155 86.3315 26.271C86.387 26.271 86.4981 26.271 86.6091 26.3265C86.7202 26.3265 86.8867 26.3265 87.0533 26.3265C87.2198 26.3265 87.3864 26.3265 87.4974 26.3265C87.6085 26.271 87.7195 26.271 87.775 26.271C87.8305 26.2155 87.8861 26.2155 87.9416 26.1599C87.9416 26.1044 87.9971 26.1044 87.9971 26.0489V20.7191H89.163C89.274 20.7191 89.3295 20.6636 89.3851 20.5525C89.4406 20.4415 89.4406 20.2749 89.4406 19.9974C89.4406 19.8308 89.4406 19.7198 89.4406 19.6642C89.4406 19.5532 89.3851 19.4422 89.3851 19.3866C89.3851 19.3311 89.3295 19.3311 89.274 19.2756C89.274 19.2756 89.2185 19.2756 89.163 19.2756H87.9971V18.6649C87.9971 18.4428 87.9971 18.2763 87.9971 18.1097C88.0526 17.9987 88.1081 17.8321 88.1636 17.7766C88.2192 17.6656 88.2747 17.61 88.3857 17.5545C88.4968 17.499 88.6078 17.499 88.7188 17.499C88.8299 17.499 88.9409 17.499 89.0519 17.5545C89.1075 17.5545 89.163 17.5545 89.2185 17.61C89.3295 17.61 89.3851 17.61 89.3851 17.6656C89.4406 17.6656 89.4961 17.6656 89.4961 17.6656C89.5516 17.6656 89.5516 17.6656 89.6071 17.6656C89.6071 17.61 89.6627 17.61 89.6627 17.5545C89.6627 17.499 89.7182 17.4435 89.7182 17.3325C89.7182 17.2769 89.7182 17.1659 89.7182 16.9993C89.7182 16.8883 89.7182 16.7217 89.7182 16.6662ZM92.272 16.5552C92.161 16.3886 91.8834 16.3331 91.4393 16.3331C91.0506 16.3331 90.773 16.3886 90.6065 16.5552C90.4399 16.6662 90.3844 16.9438 90.3844 17.3325C90.3844 17.6656 90.4399 17.9432 90.6065 18.0542C90.773 18.2208 91.0506 18.2763 91.4393 18.2763C91.8279 18.2763 92.161 18.2208 92.272 18.0542C92.4386 17.8876 92.4941 17.6656 92.4941 17.2769C92.4941 16.9438 92.4386 16.6662 92.272 16.5552ZM92.3831 19.4977C92.3831 19.4422 92.3831 19.4422 92.3276 19.3866C92.3276 19.3311 92.272 19.3311 92.161 19.2756C92.1055 19.2756 91.9944 19.2201 91.8834 19.2201C91.7724 19.2201 91.6058 19.2201 91.4393 19.2201C91.2727 19.2201 91.1061 19.2201 90.9951 19.2201C90.8841 19.2201 90.773 19.2756 90.7175 19.2756C90.662 19.3311 90.6065 19.3311 90.551 19.3866C90.551 19.4422 90.551 19.4422 90.551 19.4977V26.0489C90.551 26.1044 90.551 26.1044 90.551 26.1599C90.6065 26.2155 90.662 26.2155 90.7175 26.271C90.773 26.271 90.8841 26.271 90.9951 26.3265C91.1061 26.3265 91.2727 26.3265 91.4393 26.3265C91.6058 26.3265 91.7724 26.3265 91.8834 26.3265C91.9944 26.271 92.1055 26.271 92.161 26.271C92.272 26.2155 92.3276 26.2155 92.3276 26.1599C92.3831 26.1044 92.3831 26.1044 92.3831 26.0489V19.4977ZM98.1015 25.0496C98.046 24.9385 98.046 24.883 98.046 24.8275C98.046 24.772 97.9905 24.772 97.9905 24.7164C97.935 24.7164 97.935 24.7164 97.8794 24.7164C97.8794 24.7164 97.8239 24.7164 97.7684 24.7164C97.7129 24.772 97.6574 24.772 97.6018 24.8275C97.5463 24.8275 97.4908 24.8275 97.4353 24.883C97.3242 24.883 97.2687 24.883 97.1577 24.883C96.8801 24.883 96.658 24.772 96.547 24.6054C96.4359 24.4389 96.3804 24.1613 96.3804 23.8281V20.7191H97.8239C97.8794 20.7191 97.9905 20.6636 98.046 20.5525C98.046 20.4415 98.1015 20.2749 98.1015 19.9974C98.1015 19.8308 98.1015 19.7198 98.1015 19.6642C98.046 19.5532 98.046 19.4422 98.046 19.3866C97.9905 19.3311 97.9905 19.3311 97.935 19.2756C97.8794 19.2756 97.8239 19.2756 97.8239 19.2756H96.3804V17.7766C96.3804 17.7211 96.3804 17.7211 96.3249 17.6656C96.3249 17.61 96.2694 17.61 96.1584 17.5545C96.1028 17.5545 96.0473 17.499 95.8808 17.499C95.7697 17.499 95.6587 17.499 95.4366 17.499C95.2701 17.499 95.1035 17.499 94.9925 17.499C94.8814 17.499 94.7704 17.5545 94.7149 17.5545C94.6593 17.61 94.6038 17.61 94.5483 17.6656C94.5483 17.7211 94.5483 17.7211 94.5483 17.7766V19.2756H93.771C93.7155 19.2756 93.66 19.2756 93.6045 19.2756C93.6045 19.3311 93.549 19.3311 93.549 19.3866C93.4934 19.4422 93.4934 19.5532 93.4934 19.6642C93.4934 19.7198 93.4379 19.8308 93.4379 19.9974C93.4379 20.2749 93.4934 20.4415 93.549 20.5525C93.6045 20.6636 93.66 20.7191 93.771 20.7191H94.5483V24.1057C94.5483 24.4944 94.5483 24.8275 94.6593 25.1606C94.7149 25.4382 94.8814 25.6603 95.048 25.8823C95.2145 26.0489 95.4366 26.2155 95.7142 26.271C95.9918 26.382 96.3249 26.4375 96.658 26.4375C96.8246 26.4375 96.9356 26.4375 97.1022 26.382C97.2132 26.382 97.3242 26.382 97.4353 26.3265C97.5463 26.3265 97.6574 26.271 97.7684 26.271C97.8239 26.2155 97.8794 26.1599 97.935 26.1044C97.9905 26.1044 98.046 25.9934 98.046 25.8823C98.1015 25.7713 98.1015 25.6047 98.1015 25.3827C98.1015 25.2716 98.1015 25.1606 98.1015 25.0496ZM105.708 21.996C105.708 21.4964 105.652 21.1077 105.541 20.7746C105.486 20.4415 105.319 20.1639 105.153 19.8863C104.986 19.6642 104.708 19.4422 104.431 19.2756C104.098 19.1646 103.709 19.0535 103.265 19.0535C102.876 19.0535 102.488 19.1646 102.099 19.3866C101.71 19.5532 101.377 19.8863 100.989 20.2749V19.4977C100.989 19.4422 100.989 19.3866 100.989 19.3866C100.933 19.3311 100.878 19.2756 100.822 19.2756C100.767 19.2756 100.711 19.2201 100.6 19.2201C100.489 19.2201 100.378 19.2201 100.211 19.2201C100.045 19.2201 99.9336 19.2201 99.8226 19.2201C99.7671 19.2201 99.656 19.2756 99.6005 19.2756C99.545 19.2756 99.4895 19.3311 99.4895 19.3866C99.434 19.3866 99.434 19.4422 99.434 19.4977V26.0489C99.434 26.1044 99.434 26.1044 99.4895 26.1599C99.4895 26.2155 99.545 26.2155 99.6005 26.271C99.7116 26.271 99.7671 26.271 99.9336 26.3265C100.045 26.3265 100.156 26.3265 100.378 26.3265C100.545 26.3265 100.711 26.3265 100.822 26.3265C100.933 26.271 100.989 26.271 101.1 26.271C101.155 26.2155 101.211 26.2155 101.211 26.1599C101.266 26.1044 101.266 26.1044 101.266 26.0489V21.6629C101.544 21.3853 101.766 21.1077 102.044 20.9412C102.266 20.7746 102.488 20.6636 102.765 20.6636C102.932 20.6636 103.098 20.7191 103.209 20.7746C103.376 20.8857 103.487 20.9412 103.543 21.1077C103.654 21.2188 103.709 21.3853 103.765 21.5519C103.82 21.7184 103.82 21.996 103.82 22.3291V26.0489C103.82 26.1044 103.876 26.1044 103.876 26.1599C103.931 26.2155 103.987 26.2155 104.042 26.271C104.098 26.271 104.209 26.271 104.32 26.3265C104.431 26.3265 104.597 26.3265 104.764 26.3265C104.931 26.3265 105.097 26.3265 105.208 26.3265C105.319 26.271 105.43 26.271 105.486 26.271C105.541 26.2155 105.597 26.2155 105.652 26.1599C105.652 26.1044 105.708 26.1044 105.708 26.0489V21.996ZM108.983 22.0515C108.983 21.8295 109.039 21.6074 109.094 21.3853C109.15 21.2188 109.261 20.9967 109.372 20.8857C109.483 20.7191 109.65 20.6081 109.816 20.497C109.983 20.4415 110.149 20.386 110.427 20.386C110.871 20.386 111.204 20.5525 111.426 20.8301C111.648 21.1077 111.759 21.5519 111.759 22.0515H108.983ZM113.536 22.2736C113.536 21.8295 113.48 21.3853 113.369 20.9967C113.258 20.6081 113.092 20.2749 112.814 19.9974C112.592 19.7198 112.259 19.4977 111.87 19.3311C111.482 19.1646 110.982 19.0535 110.427 19.0535C109.927 19.0535 109.483 19.1646 109.039 19.3311C108.65 19.4977 108.317 19.7753 107.984 20.1084C107.706 20.386 107.484 20.7746 107.318 21.2743C107.207 21.7184 107.096 22.2736 107.096 22.8288C107.096 23.4395 107.207 23.9947 107.318 24.4389C107.484 24.883 107.706 25.2716 107.984 25.5492C108.262 25.8823 108.65 26.1044 109.094 26.2155C109.539 26.382 110.038 26.4375 110.593 26.4375C110.927 26.4375 111.26 26.4375 111.537 26.382C111.815 26.3265 112.037 26.3265 112.259 26.271C112.481 26.2155 112.703 26.1044 112.814 26.0489C112.981 25.9934 113.036 25.9934 113.092 25.9379C113.092 25.8823 113.147 25.8823 113.147 25.8268C113.203 25.7713 113.203 25.7713 113.203 25.7158C113.203 25.6603 113.203 25.5492 113.203 25.4937C113.258 25.4382 113.258 25.3272 113.258 25.2161C113.258 25.1051 113.203 24.994 113.203 24.9385C113.203 24.8275 113.203 24.772 113.203 24.7164C113.147 24.6609 113.147 24.6609 113.092 24.6609C113.092 24.6054 113.036 24.6054 112.981 24.6054C112.925 24.6054 112.814 24.6609 112.703 24.6609C112.592 24.7164 112.426 24.772 112.259 24.8275C112.092 24.883 111.87 24.9385 111.648 24.994C111.371 25.0496 111.093 25.0496 110.76 25.0496C110.482 25.0496 110.205 24.994 109.983 24.9385C109.761 24.8275 109.539 24.7164 109.428 24.5499C109.261 24.4389 109.15 24.2168 109.094 23.9947C109.039 23.7726 108.983 23.495 108.983 23.2174H112.981C113.147 23.2174 113.314 23.1619 113.369 23.0509C113.48 22.9398 113.536 22.8288 113.536 22.5512V22.2736ZM119.532 23.4395C119.421 23.2174 119.31 22.9954 119.143 22.8288C119.032 22.7178 118.866 22.5512 118.644 22.4402C118.477 22.3291 118.255 22.2736 118.033 22.1626C117.866 22.1071 117.644 21.996 117.478 21.9405C117.256 21.885 117.089 21.8295 116.978 21.7184C116.812 21.6629 116.7 21.5519 116.589 21.4408C116.478 21.3853 116.423 21.2188 116.423 21.1077C116.423 20.9967 116.478 20.8857 116.534 20.8301C116.534 20.7191 116.589 20.6636 116.7 20.6081C116.756 20.497 116.867 20.497 116.978 20.4415C117.089 20.386 117.256 20.386 117.422 20.386C117.644 20.386 117.866 20.386 118.033 20.4415C118.255 20.497 118.366 20.5525 118.533 20.6081C118.644 20.6636 118.81 20.7191 118.866 20.7746C118.977 20.8301 119.032 20.8857 119.088 20.8857C119.143 20.8857 119.143 20.8857 119.199 20.8301C119.199 20.8301 119.254 20.7746 119.254 20.7191C119.254 20.7191 119.31 20.6081 119.31 20.5525C119.31 20.4415 119.31 20.3305 119.31 20.2194C119.31 20.1084 119.31 19.9974 119.31 19.9418C119.31 19.8863 119.254 19.7753 119.254 19.7753C119.254 19.7198 119.254 19.6642 119.199 19.6087C119.199 19.6087 119.143 19.5532 119.143 19.4977C119.088 19.4977 118.977 19.4422 118.866 19.3866C118.81 19.3311 118.644 19.2756 118.477 19.2201C118.366 19.1646 118.144 19.1646 117.977 19.1091C117.755 19.1091 117.589 19.0535 117.367 19.0535C116.978 19.0535 116.589 19.1091 116.256 19.2201C115.923 19.3311 115.646 19.4977 115.424 19.6642C115.201 19.8308 115.035 20.0529 114.868 20.3305C114.757 20.6081 114.702 20.8857 114.702 21.2188C114.702 21.4964 114.757 21.774 114.868 21.996C114.924 22.2181 115.035 22.3847 115.201 22.5512C115.368 22.7178 115.535 22.8288 115.701 22.9398C115.923 23.0509 116.09 23.1619 116.312 23.2174C116.478 23.3285 116.7 23.384 116.867 23.4395C117.034 23.5506 117.2 23.6061 117.367 23.6616C117.533 23.7726 117.644 23.8281 117.755 23.9392C117.811 24.0502 117.866 24.1613 117.866 24.3278C117.866 24.4389 117.866 24.5499 117.811 24.6609C117.755 24.772 117.7 24.8275 117.589 24.9385C117.478 24.994 117.367 25.0496 117.256 25.0496C117.089 25.1051 116.978 25.1051 116.812 25.1051C116.534 25.1051 116.312 25.1051 116.09 24.994C115.868 24.9385 115.701 24.883 115.535 24.8275C115.368 24.7164 115.257 24.6609 115.146 24.6054C115.035 24.5499 114.979 24.4944 114.924 24.4944C114.868 24.4944 114.813 24.5499 114.813 24.5499C114.757 24.5499 114.757 24.6054 114.757 24.6609C114.702 24.7164 114.702 24.772 114.702 24.8275C114.702 24.9385 114.646 25.0496 114.646 25.2161C114.646 25.3827 114.702 25.5492 114.702 25.6603C114.757 25.7713 114.813 25.8823 114.868 25.9379C114.868 25.9934 114.979 26.0489 115.09 26.1044C115.201 26.1599 115.368 26.2155 115.535 26.271C115.701 26.3265 115.923 26.382 116.145 26.382C116.367 26.4375 116.589 26.4375 116.812 26.4375C117.256 26.4375 117.644 26.382 117.977 26.3265C118.311 26.2155 118.644 26.0489 118.866 25.8823C119.143 25.7158 119.31 25.4382 119.476 25.1606C119.587 24.883 119.643 24.5499 119.643 24.1613C119.643 23.8837 119.643 23.6061 119.532 23.4395ZM125.528 23.4395C125.417 23.2174 125.306 22.9954 125.139 22.8288C125.028 22.7178 124.862 22.5512 124.64 22.4402C124.473 22.3291 124.251 22.2736 124.029 22.1626C123.862 22.1071 123.64 21.996 123.474 21.9405C123.252 21.885 123.085 21.8295 122.974 21.7184C122.808 21.6629 122.697 21.5519 122.585 21.4408C122.474 21.3853 122.419 21.2188 122.419 21.1077C122.419 20.9967 122.474 20.8857 122.53 20.8301C122.53 20.7191 122.585 20.6636 122.697 20.6081C122.752 20.497 122.863 20.497 122.974 20.4415C123.085 20.386 123.252 20.386 123.418 20.386C123.64 20.386 123.862 20.386 124.029 20.4415C124.251 20.497 124.362 20.5525 124.529 20.6081C124.64 20.6636 124.806 20.7191 124.862 20.7746C124.973 20.8301 125.028 20.8857 125.084 20.8857C125.139 20.8857 125.139 20.8857 125.195 20.8301C125.195 20.8301 125.25 20.7746 125.25 20.7191C125.25 20.7191 125.306 20.6081 125.306 20.5525C125.306 20.4415 125.306 20.3305 125.306 20.2194C125.306 20.1084 125.306 19.9974 125.306 19.9418C125.306 19.8863 125.25 19.7753 125.25 19.7753C125.25 19.7198 125.25 19.6642 125.195 19.6087C125.195 19.6087 125.139 19.5532 125.139 19.4977C125.084 19.4977 124.973 19.4422 124.862 19.3866C124.806 19.3311 124.64 19.2756 124.473 19.2201C124.362 19.1646 124.14 19.1646 123.973 19.1091C123.751 19.1091 123.585 19.0535 123.363 19.0535C122.974 19.0535 122.585 19.1091 122.252 19.2201C121.919 19.3311 121.642 19.4977 121.42 19.6642C121.198 19.8308 121.031 20.0529 120.864 20.3305C120.753 20.6081 120.698 20.8857 120.698 21.2188C120.698 21.4964 120.753 21.774 120.864 21.996C120.92 22.2181 121.031 22.3847 121.198 22.5512C121.364 22.7178 121.531 22.8288 121.697 22.9398C121.919 23.0509 122.086 23.1619 122.308 23.2174C122.474 23.3285 122.697 23.384 122.863 23.4395C123.03 23.5506 123.196 23.6061 123.363 23.6616C123.529 23.7726 123.64 23.8281 123.751 23.9392C123.807 24.0502 123.862 24.1613 123.862 24.3278C123.862 24.4389 123.862 24.5499 123.807 24.6609C123.751 24.772 123.696 24.8275 123.585 24.9385C123.474 24.994 123.363 25.0496 123.252 25.0496C123.085 25.1051 122.974 25.1051 122.808 25.1051C122.53 25.1051 122.308 25.1051 122.086 24.994C121.864 24.9385 121.697 24.883 121.531 24.8275C121.364 24.7164 121.253 24.6609 121.142 24.6054C121.031 24.5499 120.975 24.4944 120.92 24.4944C120.864 24.4944 120.809 24.5499 120.809 24.5499C120.753 24.5499 120.753 24.6054 120.753 24.6609C120.698 24.7164 120.698 24.772 120.698 24.8275C120.698 24.9385 120.642 25.0496 120.642 25.2161C120.642 25.3827 120.698 25.5492 120.698 25.6603C120.753 25.7713 120.809 25.8823 120.864 25.9379C120.864 25.9934 120.975 26.0489 121.086 26.1044C121.198 26.1599 121.364 26.2155 121.531 26.271C121.697 26.3265 121.919 26.382 122.141 26.382C122.363 26.4375 122.585 26.4375 122.808 26.4375C123.252 26.4375 123.64 26.382 123.973 26.3265C124.307 26.2155 124.64 26.0489 124.862 25.8823C125.139 25.7158 125.306 25.4382 125.472 25.1606C125.584 24.883 125.639 24.5499 125.639 24.1613C125.639 23.8837 125.639 23.6061 125.528 23.4395ZM63.9575 17.5545C63.9575 17.4435 63.9575 17.3325 63.9019 17.2214C63.9019 17.1659 63.8464 17.0549 63.7909 16.9993C63.7354 16.9438 63.6243 16.8883 63.5688 16.8328C63.4578 16.8328 63.3468 16.7773 63.2357 16.7773H61.9033C61.7367 16.7773 61.5702 16.8328 61.4591 16.8328C61.2926 16.8883 61.1815 16.9438 61.0705 17.0549C60.9594 17.1104 60.9039 17.2214 60.7929 17.388C60.7374 17.5545 60.6819 17.7211 60.6263 17.8876L58.4611 23.5506L56.4069 17.8876C56.3514 17.6656 56.2404 17.499 56.1848 17.388C56.1293 17.2214 56.0183 17.1104 55.9072 17.0549C55.7962 16.9438 55.6296 16.8883 55.4631 16.8328C55.2965 16.8328 55.13 16.7773 54.9079 16.7773H53.631C53.4089 16.7773 53.2423 16.8883 53.1313 16.9993C52.9647 17.1104 52.9092 17.3325 52.9092 17.5545V25.9934C52.9092 26.0489 52.9092 26.1044 52.9647 26.1599C52.9647 26.2155 53.0203 26.2155 53.0758 26.271C53.1868 26.271 53.2423 26.271 53.3534 26.3265C53.5199 26.3265 53.631 26.3265 53.7975 26.3265C54.0196 26.3265 54.1306 26.3265 54.2417 26.3265C54.3527 26.271 54.4637 26.271 54.5193 26.271C54.6303 26.2155 54.6858 26.2155 54.6858 26.1599C54.7413 26.1044 54.7413 26.0489 54.7413 25.9934V18.3318L57.4062 25.9934C57.4062 26.0489 57.4618 26.1044 57.5173 26.1599C57.5173 26.2155 57.5728 26.2155 57.6838 26.271C57.7394 26.271 57.8504 26.271 57.9614 26.3265C58.0725 26.3265 58.239 26.3265 58.4056 26.3265C58.5721 26.3265 58.6832 26.3265 58.7942 26.3265C58.9053 26.3265 59.0163 26.271 59.1273 26.271C59.1828 26.271 59.2384 26.2155 59.2939 26.1599C59.3494 26.1044 59.3494 26.1044 59.4049 25.9934L62.1253 18.3318V25.9934C62.1253 26.0489 62.1809 26.1044 62.1809 26.1599C62.2364 26.2155 62.2919 26.2155 62.3474 26.271C62.4029 26.271 62.514 26.271 62.625 26.3265C62.736 26.3265 62.9026 26.3265 63.0692 26.3265C63.2357 26.3265 63.4023 26.3265 63.5133 26.3265C63.6243 26.271 63.7354 26.271 63.7909 26.271C63.8464 26.2155 63.9019 26.2155 63.9575 26.1599C63.9575 26.1044 63.9575 26.0489 63.9575 25.9934V17.5545Z" fill="#333333"/>
</g>
<defs>
<clipPath id="clip0_93_16">
<rect width="126" height="43" fill="white"/>
</clipPath>
</defs>
</svg>
